# xmcd
#
# Track frame offsets:
#	150
#	16682
#	40350
#	61957
#	79638
#
# Disc length: 1273 seconds
#
# Revision: 1
# Processed by: cddbd v1.5.2PL0 Copyright (c) Steve Scherf et al.
# Submitted via: audiograbber 1.83.01
#
DISCID=3004f705
DTITLE=New Hamlet - Love and Peace [CDM)
DYEAR=1900
DGENRE=Dance
TTITLE0=Love and Peace (Radio Edit)
TTITLE1=Love and Peace (Extended Edit)
TTITLE2=Love and Peace (Club Mix)
TTITLE3=Love and Peace (Ettans Mix)
TTITLE4=Love and Peace (Loveboat Mix)
EXTD=TR.
EXTT0=
EXTT1=
EXTT2=
EXTT3=
EXTT4=
PLAYORDER=
